<svg width="130" height="129" viewBox="0 0 130 129" fill="none" xmlns="http://www.w3.org/2000/svg">
<path opacity="0.1" d="M99.5556 35.3536C95.4472 15.2882 81.5583 0.526062 65.0538 0.526062C45.3108 0.526062 29.3118 21.6381 29.3118 47.6735C29.3118 47.8673 29.3235 48.0534 29.3235 48.2394C12.7192 50.86 0.217407 62.2185 0.217407 75.8487C0.217407 83.8501 4.53749 91.0683 11.4614 96.201C11.0323 98.116 10.7972 100.101 10.7972 102.148C10.7972 116.669 22.241 128.447 36.365 128.447C45.3813 128.447 53.3044 123.64 57.8537 116.39C65.4535 123.888 75.4631 128.447 86.4367 128.447C110.194 128.447 129.455 107.102 129.455 80.7643C129.455 59.5049 116.901 41.5019 99.5556 35.3536Z" fill="#C6C6C6"/>
</svg>
