<svg width="216" height="212" viewBox="0 0 216 212" fill="none" xmlns="http://www.w3.org/2000/svg">
<path opacity="0.15" d="M165.477 57.9938C158.653 24.8521 135.583 0.469727 108.169 0.469727C75.3754 0.469727 48.8008 35.3402 48.8008 78.3424C48.8008 78.6625 48.8204 78.9699 48.8204 79.2772C21.2402 83.6056 0.474579 102.366 0.474579 124.879C0.474579 138.095 7.6503 150.017 19.151 158.495C18.4383 161.658 18.0478 164.936 18.0478 168.317C18.0478 192.302 37.0561 211.754 60.5163 211.754C75.4926 211.754 88.6529 203.815 96.2094 191.841C108.833 204.224 125.459 211.754 143.686 211.754C183.148 211.754 215.141 176.5 215.141 132.998C215.141 97.8842 194.287 68.1489 165.477 57.9938Z" fill="#C6C6C6"/>
</svg>
